<?xml version="1.0" encoding="UTF-8"?>
<svg version="1.1" xmlns="http://www.w3.org/2000/svg" width="1254" height="1254">
<path d="M0 0 C1.75919017 -0.00379145 3.51837734 -0.00929826 5.27755737 -0.01637268 C10.01957516 -0.03023995 14.76122652 -0.0192179 19.50322366 -0.00266147 C24.49118028 0.01128389 29.47911766 0.00471798 34.46708679 0.00120544 C42.84351436 -0.00148998 51.21979809 0.01191871 59.59619141 0.03515625 C69.24319283 0.06173559 78.88995354 0.06351881 88.53697902 0.05176789 C97.8600381 0.04093871 107.18301117 0.04721899 116.50606346 0.06132317 C120.45341239 0.0670412 124.40069751 0.06703349 128.34804726 0.06225777 C133.00955807 0.05743872 137.67080989 0.06779067 142.33227158 0.08921242 C144.03002614 0.09471503 145.72780593 0.09530677 147.4255619 0.09025955 C158.37899235 0.06181236 168.45620309 1.10784765 179.1628418 3.50170898 C180.20020131 3.72712655 181.23756083 3.95254412 182.30635548 4.18479252 C184.82888962 4.74049533 187.33999752 5.3309485 189.8503418 5.93920898 C190.73753906 6.15311279 191.62473633 6.3670166 192.53881836 6.58740234 C202.77237781 9.09177451 212.62745407 11.95788944 222.1628418 16.50170898 C228.4277888 19.40431752 234.66114704 22.17091275 241.1628418 24.50170898 C241.1628418 25.16170898 241.1628418 25.82170898 241.1628418 26.50170898 C242.43321289 26.87489258 242.43321289 26.87489258 243.72924805 27.25561523 C247.45814475 28.60887809 250.72946108 30.38375026 254.1003418 32.43920898 C254.7485791 32.83253418 255.39681641 33.22585938 256.06469727 33.63110352 C281.5227705 49.34816248 303.8659579 70.12415869 321.1628418 94.50170898 C321.58936035 95.08355957 322.01587891 95.66541016 322.45532227 96.26489258 C354.77771809 140.39665722 369.85918571 199.40074047 361.6628418 253.56420898 C358.57559503 272.24526175 353.86302949 291.19136538 346.1628418 308.50170898 C345.82551025 309.28811768 345.48817871 310.07452637 345.140625 310.88476562 C339.15346173 324.71403415 332.03119638 338.30326945 323.1628418 350.50170898 C322.47963867 351.4569043 321.79643555 352.41209961 321.0925293 353.39624023 C294.70990192 389.47140993 260.57920228 415.07260846 219.1628418 431.50170898 C217.3375293 432.23067383 217.3375293 432.23067383 215.4753418 432.97436523 C202.11750148 438.02993674 188.18299005 440.5186022 174.09179688 442.55102539 C170.31277653 442.79053945 170.31277653 442.79053945 167.1628418 444.50170898 C164.22225404 444.60766402 161.30502808 444.64848477 158.36376953 444.64697266 C157.44013107 444.65033127 156.51649261 444.65368988 155.56486511 444.65715027 C152.49204179 444.66669695 149.41927281 444.66860569 146.34643555 444.66967773 C144.21468584 444.67288937 142.08293637 444.67625337 139.95118713 444.67976379 C135.47119639 444.6857655 130.99122495 444.68760279 126.51123047 444.68701172 C120.78030816 444.68691041 115.04951063 444.70052551 109.31861782 444.71778393 C104.90987077 444.72892753 100.50115356 444.73093015 96.09239388 444.73040199 C93.98056676 444.73157998 91.86873883 444.73599154 89.75692558 444.74373436 C86.79375503 444.75357518 83.83085099 444.75063927 80.86767578 444.74462891 C80.00033813 444.75024841 79.13300049 444.75586792 78.23937988 444.76165771 C70.42760375 444.72156721 63.63437399 443.84244649 57.76049805 438.32983398 C50.33590273 429.83420903 47.59782418 419.2275793 47.7253418 408.18920898 C47.73291504 407.26857666 47.74048828 406.34794434 47.74829102 405.39941406 C48.00324172 394.83198646 50.40533186 385.11817328 58.1628418 377.50170898 C64.12348651 373.05346666 68.45905015 371.35467806 75.87524414 371.35986328 C76.67246384 371.35638885 77.46968353 371.35291443 78.2910614 371.34933472 C80.02891718 371.34196805 81.76678242 371.33662754 83.50465012 371.33304405 C86.2743861 371.32586133 89.04394667 371.31017275 91.81362915 371.29170227 C99.69172474 371.23937895 107.56973321 371.19145776 115.44799805 371.17578125 C120.26810011 371.16556235 125.08777284 371.13587637 129.9077034 371.09446144 C131.72767475 371.08232184 133.54770731 371.0769982 135.36771774 371.07925987 C152.03318773 371.09484464 168.12231749 368.76858215 183.9128418 363.25170898 C184.7778833 362.95506348 185.6429248 362.65841797 186.53417969 362.3527832 C204.0070063 356.17036331 222.91080437 346.31501194 235.80737305 332.77514648 C237.1628418 331.50170898 237.1628418 331.50170898 239.1628418 331.50170898 C239.4103418 330.88295898 239.6578418 330.26420898 239.9128418 329.62670898 C241.40024548 327.09812272 242.59962188 326.78331894 245.1628418 325.50170898 C245.4309668 324.94870117 245.6990918 324.39569336 245.9753418 323.82592773 C247.27445316 321.28325911 248.92810375 319.2327706 250.74169922 317.03833008 C275.30367326 287.23990014 285.42153053 249.70652663 283.1628418 211.50170898 C282.59237459 205.73042873 281.48512778 200.14265376 280.1628418 194.50170898 C279.92307617 193.38538086 279.68331055 192.26905273 279.4362793 191.11889648 C278.1967388 185.68398816 276.57963754 180.7631664 274.1706543 175.73999023 C273.11880967 173.4039167 272.3729744 171.06837804 271.6003418 168.62670898 C265.4711414 151.55592819 253.80777597 135.19844189 240.52612305 122.95483398 C239.1628418 121.50170898 239.1628418 121.50170898 239.1628418 119.50170898 C238.58147461 119.24389648 238.00010742 118.98608398 237.40112305 118.72045898 C234.97524874 117.39956407 233.33822314 115.91509379 231.3503418 114.00170898 C215.15308499 99.41100935 194.33369395 88.96206524 173.5378418 82.87670898 C172.85197998 82.67005615 172.16611816 82.46340332 171.45947266 82.25048828 C154.92331202 77.62923371 137.7075845 78.16067269 120.7019043 78.13061523 C118.72799405 78.12390752 116.75408379 78.11719695 114.78017461 78.11018032 C108.59864122 78.08887636 102.41716227 78.0793989 96.2355957 78.07617188 C89.88914003 78.07252393 83.54316401 78.04249812 77.19685519 78.00076729 C71.04801132 77.96177414 64.89940028 77.95057743 58.75043869 77.94944572 C56.15180206 77.94525291 53.55316466 77.93285667 50.95460892 77.91192818 C47.32258504 77.88497483 43.69188834 77.88984995 40.05981445 77.90234375 C38.99881531 77.88750946 37.93781616 77.87267517 36.84466553 77.85739136 C29.10105027 77.93297286 22.40872379 79.70442005 16.5100956 84.97983646 C11.33342196 90.82746322 10.8626624 96.25756889 10.84399414 103.69824219 C10.83394852 104.61580795 10.82390289 105.53337372 10.81355286 106.47874451 C10.78272982 109.50332021 10.76568805 112.52780741 10.7487793 115.55249023 C10.73006696 117.65285503 10.71049349 119.75321232 10.69009399 121.8535614 C10.63877386 127.37561616 10.59914739 132.89769529 10.56195068 138.41986084 C10.52191038 144.05723092 10.47081813 149.69449963 10.4206543 155.33178711 C10.32389636 166.38835652 10.23949105 177.44498317 10.1628418 188.50170898 C5.4128418 186.62670898 5.4128418 186.62670898 3.1628418 185.50170898 C1.06998019 185.38112843 -1.02665598 185.32428221 -3.12280273 185.29638672 C-3.76683044 185.28648712 -4.41085815 185.27658752 -5.07440186 185.26638794 C-7.20622056 185.23476399 -9.33806156 185.21001211 -11.4699707 185.18530273 C-12.94685449 185.16473397 -14.42373238 185.14373752 -15.90060425 185.12232971 C-19.79021431 185.067101 -23.67987757 185.01769529 -27.56958008 184.96948242 C-31.53772727 184.91927321 -35.50579709 184.86358413 -39.47387695 184.80834961 C-47.26157187 184.70075827 -55.04933107 184.5993155 -62.8371582 184.50170898 C-62.95435927 166.76787182 -63.04232533 149.03413623 -63.09621906 131.29999447 C-63.12191659 123.06428457 -63.15690363 114.82881639 -63.21435547 106.59326172 C-63.26445128 99.40870076 -63.29651052 92.224315 -63.30760068 85.03958422 C-63.31407559 81.24106767 -63.32911258 77.44305197 -63.36580849 73.64469719 C-63.40018412 70.05685601 -63.41012938 66.46971365 -63.40269661 62.8817234 C-63.4046912 60.9629478 -63.43136597 59.04424528 -63.45925903 57.12567139 C-63.36703867 41.26964639 -57.48252692 27.30858223 -46.5871582 15.75170898 C-32.81458824 2.74686674 -18.2251381 -0.11300228 0 0 Z " fill="#FBFBFB" transform="translate(627.837158203125,284.498291015625)"/>
<path d="M0 0 C0 32.01 0 64.02 0 97 C-4.95 99.475 -4.95 99.475 -10 102 C-22.63330419 111.15747447 -30.07910347 124.47462081 -32.625 139.75 C-34.34758608 156.40166545 -31.05414926 173.2289343 -20.68359375 186.71142578 C-14.80534232 193.59241312 -8.60212331 198.13262556 0 201 C0.09352144 224.55710591 0.16401753 248.11418392 0.20724869 271.67143822 C0.22785693 282.60996082 0.25594436 293.54836794 0.30175781 304.48681641 C0.34167872 314.02291748 0.36744545 323.5589349 0.37635398 333.09511721 C0.38155981 338.14253067 0.39375927 343.18970485 0.42292023 348.23704147 C0.45017231 352.99273649 0.45842524 357.74809479 0.45243073 362.50386047 C0.45352659 364.24446572 0.46142196 365.98508281 0.4768219 367.72562027 C0.58444101 380.52211914 -0.58824396 390.36724314 -9.7109375 400.01953125 C-19.71051421 408.67104216 -31.08641519 408.64713742 -43.61132812 408.17919922 C-51.74000278 407.56938246 -58.62507538 404.07541605 -64 398 C-71.90062726 387.93277046 -73.43088747 379.45124792 -73.37109375 366.8671875 C-73.37779839 365.50292954 -73.38638153 364.13867966 -73.39674377 362.77444458 C-73.43658855 357.017122 -73.43804353 351.25987912 -73.43579102 345.50244141 C-73.43573979 341.96576376 -73.45495975 338.42958141 -73.48512459 334.8930397 C-73.49589152 332.90453685 -73.48381323 330.91595234 -73.47129822 328.92745972 C-73.45179334 320.127059 -73.45179334 320.127059 -78 313 C-78.99 312.34 -79.98 311.68 -81 311 C-81 310.34 -81 309.68 -81 309 C-80.21625 308.54625 -79.4325 308.0925 -78.625 307.625 C-75.7235186 305.82884485 -75.17627205 305.11247243 -74 302 C-73.69373376 299.26091231 -73.69373376 299.26091231 -73.734375 296.28125 C-73.73050781 294.63576172 -73.73050781 294.63576172 -73.7265625 292.95703125 C-73.73429687 291.81621094 -73.74203125 290.67539062 -73.75 289.5 C-73.74226563 288.35917969 -73.73453125 287.21835937 -73.7265625 286.04296875 C-73.72914063 284.94597656 -73.73171875 283.84898437 -73.734375 282.71875 C-73.73775879 281.21731445 -73.73775879 281.21731445 -73.74121094 279.68554688 C-74.00783222 276.91872228 -74.48001206 275.31038166 -76 273 C-77.65261839 271.97695052 -79.31791365 270.97383946 -81 270 C-81 269.34 -81 268.68 -81 268 C-79.34614767 266.65080468 -77.678298 265.31866272 -76 264 C-73.93878144 260.90817216 -73.74743316 260.24388277 -73.72584534 256.74482727 C-73.71088264 255.44337517 -73.71088264 255.44337517 -73.69561768 254.1156311 C-73.694953 253.16650848 -73.69428833 252.21738586 -73.69360352 251.23950195 C-73.68528 250.23754288 -73.67695648 249.2355838 -73.66838074 248.20326233 C-73.64423135 244.88156272 -73.63550134 241.56005942 -73.62890625 238.23828125 C-73.61994176 235.93002767 -73.61081995 233.6217747 -73.60154724 231.31352234 C-73.58503992 226.46884753 -73.57735428 221.62424195 -73.57446289 216.77954102 C-73.56908572 210.57986906 -73.53143988 204.38085073 -73.48571873 198.18136311 C-73.45592978 193.41059514 -73.44873888 188.63998396 -73.44773674 183.86913109 C-73.44353602 181.58423058 -73.43110779 179.29932953 -73.41021919 177.01452065 C-73.38327585 173.81168733 -73.38814062 170.6103606 -73.40063477 167.4074707 C-73.38580048 166.46846924 -73.37096619 165.52946777 -73.35568237 164.56201172 C-73.42644319 158.17175142 -74.92361374 153.96311002 -79 149 C-81.04367899 147.13858595 -81.04367899 147.13858595 -83.1875 146.0625 C-83.86167969 145.68222656 -84.53585937 145.30195312 -85.23046875 144.91015625 C-88.99717772 142.97275407 -91.42598618 142.86516284 -95.73664856 142.84609985 C-96.43720059 142.8417176 -97.13775261 142.83733535 -97.85953349 142.8328203 C-100.21861418 142.81941284 -102.57765751 142.81324911 -104.93676758 142.80712891 C-106.62351145 142.79922952 -108.31025363 142.79096067 -109.99699402 142.78234863 C-115.54615663 142.75611137 -121.09532687 142.74082012 -126.64453125 142.7265625 C-128.55314324 142.72120368 -130.46175517 142.71582617 -132.37036705 142.71043015 C-140.30798723 142.68879966 -148.24560536 142.67006184 -156.18324757 142.65880775 C-167.56801258 142.64256135 -178.95243667 142.6093688 -190.33707315 142.55240691 C-198.3371255 142.51374066 -206.33708654 142.49417905 -214.33722991 142.48888719 C-219.11790191 142.4852294 -223.89821045 142.47316289 -228.67878151 142.44078445 C-233.17602294 142.41076176 -237.67267988 142.4043711 -242.17000008 142.41616821 C-243.82079494 142.41638943 -245.47161647 142.40804451 -247.12231827 142.39051437 C-249.37638555 142.36787918 -251.62832316 142.37608849 -253.88240051 142.39199829 C-255.14358106 142.38868814 -256.4047616 142.385378 -257.70415974 142.38196754 C-261.90204138 143.16914984 -263.32813686 144.74395532 -266 148 C-266.86625 149.3921875 -266.86625 149.3921875 -267.75 150.8125 C-273.37205071 158.77707184 -280.8260322 164.18504746 -290.28515625 166.578125 C-302.44084489 168.46706654 -312.96178887 167.37878147 -323.1875 160.25 C-331.48914849 153.55512218 -338.43679061 144.817409 -340 134 C-341.00420431 120.0989432 -339.2714887 109.08028999 -330.00390625 98.03125 C-322.10776218 90.02736128 -312.25673603 84.91033824 -300.9375 84.5625 C-289.12054204 85.03517832 -278.77632709 89.61663148 -270.6875 98.3125 C-267.56066661 102.0406475 -265.12538942 105.92466337 -262.91015625 110.25 C-262.1237086 111.97664618 -262.1237086 111.97664618 -261 113 C-258.79059822 113.10581538 -256.57775108 113.13969535 -254.36582947 113.14717102 C-253.66416501 113.15084771 -252.96250055 113.1545244 -252.23957354 113.1583125 C-249.87056458 113.16939196 -247.50159941 113.17320042 -245.13256836 113.17700195 C-243.44098774 113.18326362 -241.74940851 113.18991015 -240.05783081 113.19691467 C-235.44800056 113.21435729 -230.83818071 113.22488624 -226.22832561 113.2331202 C-223.34859647 113.23826561 -220.46887059 113.24434168 -217.58914375 113.25063133 C-208.58056558 113.26969627 -199.57199565 113.28392214 -190.56340116 113.2922433 C-180.16283176 113.30200824 -169.76247561 113.32830287 -159.36198133 113.36874419 C-151.32623201 113.39891788 -143.29054374 113.41371354 -135.25473887 113.41702431 C-130.45445312 113.41937425 -125.65439484 113.42832662 -120.85416985 113.45348549 C-116.33400842 113.47679177 -111.81422377 113.48098918 -107.29401779 113.47072411 C-105.63804305 113.47022918 -103.98204961 113.47653682 -102.32613182 113.49028015 C-90.58042265 113.67965409 -90.58042265 113.67965409 -80 109 C-78.14487186 107.30690186 -78.14487186 107.30690186 -77.0625 105.4375 C-76.68222656 104.85871094 -76.30195312 104.27992188 -75.91015625 103.68359375 C-73.52154234 99.26517059 -73.82666144 94.81527066 -73.79467773 89.9387207 C-73.78477814 89.01169342 -73.77487854 88.08466614 -73.76467896 87.12954712 C-73.73306064 84.06165125 -73.70830514 80.99373989 -73.68359375 77.92578125 C-73.66302452 75.80014134 -73.64202805 73.67450553 -73.62062073 71.5488739 C-73.56539694 65.95115471 -73.51598897 60.35339859 -73.46777344 54.75561523 C-73.41756069 49.04472563 -73.36187344 43.33388974 -73.30664062 37.62304688 C-73.19905527 26.41541045 -73.09761109 15.20772742 -73 4 C-72.18425003 3.99413376 -71.36850006 3.98826752 -70.5280304 3.98222351 C-62.8328387 3.92427179 -55.13796987 3.8521812 -47.4430666 3.76428509 C-43.48721168 3.71959545 -39.53145942 3.68033643 -35.57543945 3.65356445 C-31.75621242 3.62751711 -27.9373807 3.58710515 -24.11839867 3.53681374 C-22.66284294 3.52015458 -21.20721884 3.50863435 -19.75158119 3.50238609 C-17.70937482 3.49273415 -15.66817753 3.46466477 -13.6262207 3.43237305 C-12.46484085 3.42126999 -11.303461 3.41016693 -10.10688782 3.39872742 C-6.26713354 2.90594641 -3.6525382 0 0 0 Z " fill="#FAFAFA" transform="translate(638,538)"/>
<path d="M0 0 C8.02702923 4.28108225 13.15157263 9.78291226 16.55053711 18.16625977 C18.89299383 22.26346446 18.89299383 22.26346446 22.8391304 24.61500168 C28.66917906 25.71261855 34.60331946 25.38782054 40.50390625 25.21484375 C42.43005835 25.20005962 44.35625368 25.19017105 46.28245544 25.18495178 C50.31267814 25.16206901 54.33968901 25.10053793 58.36889648 25.00756836 C63.5261291 24.88876204 68.68127752 24.834728 73.83972263 24.80564022 C78.76973095 24.77567671 83.69923575 24.71608469 88.62890625 24.65234375 C89.56565248 24.64215651 90.50239872 24.63196926 91.4675312 24.62147331 C94.12682499 24.58661115 96.78483317 24.53103791 99.44360352 24.46850586 C100.61502144 24.45640579 100.61502144 24.45640579 101.81010437 24.44406128 C107.97090432 24.26294126 112.59711404 22.47964512 117.25 18.3125 C121.13068627 14.96099822 122.84257315 14.80927017 127.88798523 14.78359985 C129.14274155 14.77499939 130.39749786 14.76639893 131.6902771 14.75753784 C133.08868367 14.75310243 134.48709068 14.74880409 135.88549805 14.74462891 C137.35225113 14.73672873 138.81900226 14.72845983 140.28575134 14.71984863 C145.11105489 14.69361411 149.93636717 14.6783175 154.76171875 14.6640625 C156.42264118 14.65870301 158.08356354 14.6533255 159.74448586 14.64793015 C166.65441352 14.62629746 173.56433883 14.60756153 180.4742918 14.59630775 C190.37666729 14.58007467 200.27864998 14.5469172 210.18087739 14.48990691 C217.14317762 14.45119032 224.10537288 14.43167292 231.06777793 14.42638719 C235.22590765 14.42273545 239.38361857 14.410734 243.5416317 14.37828445 C247.45615341 14.34817399 251.37000361 14.3419022 255.28461647 14.35366821 C256.71849192 14.35388872 258.15239879 14.34560254 259.58616638 14.32801437 C267.65142088 14.23449289 273.03946535 14.18606513 279 19.9375 C283.27000957 25.39056143 282.47767075 31.23952239 282.4375 37.875 C282.45748047 39.04224609 282.47746094 40.20949219 282.49804688 41.41210938 C282.49437025 47.86459374 282.44156729 52.08919578 278 56.9375 C273.38284069 61.10420474 270.23691719 62.06023569 264.09892273 62.08467102 C262.25042221 62.09540398 262.25042221 62.09540398 260.36457825 62.10635376 C258.99655177 62.10919397 257.62852501 62.1119057 256.26049805 62.11450195 C254.82153154 62.12076759 253.38256664 62.12741448 251.94360352 62.13441467 C247.21632003 62.15544371 242.48903626 62.16581524 237.76171875 62.17578125 C236.13389379 62.17982909 234.50606901 62.18394602 232.8782444 62.18813133 C225.23121442 62.20717962 217.58419408 62.22141201 209.93714494 62.2297433 C201.11113282 62.239518 192.28537135 62.26584495 183.45944756 62.30624419 C176.63641767 62.33640351 169.81345963 62.35121195 162.99036437 62.35452431 C158.91562485 62.35687482 154.84115321 62.36583526 150.76648521 62.39098549 C146.93245224 62.41426853 143.09886349 62.41849877 139.26477814 62.40822411 C137.85951828 62.4077287 136.45423653 62.41405066 135.04904366 62.42778015 C121.92398025 62.54881964 121.92398025 62.54881964 117 57.9375 C115.4609375 56.3046875 115.4609375 56.3046875 114.375 54.8125 C112.04220552 51.98859089 111.31729561 51.11648946 108 49.9375 C105.18737105 49.71129417 102.46954856 49.59239485 99.65478516 49.56762695 C98.81527817 49.55287827 97.97577118 49.53812958 97.11082458 49.52293396 C94.33691597 49.47846533 91.56321682 49.45020242 88.7890625 49.42578125 C87.84038677 49.41638205 86.89171104 49.40698284 85.91428757 49.39729881 C80.89535279 49.34976335 75.87652213 49.31606292 70.85742188 49.29223633 C65.6758933 49.26449501 60.49646892 49.18528147 55.31571388 49.09469318 C51.32822577 49.03488538 47.34124007 49.0149712 43.35334396 49.00572777 C41.4434621 48.99414511 39.53360873 48.9672951 37.62416458 48.92479897 C27.52642201 48.27838716 27.52642201 48.27838716 18.5770874 51.86044312 C17.02389962 54.17643717 16.03581133 56.3583732 15 58.9375 C9.47781961 66.61326468 0.99717382 74.02350317 -8.59765625 75.7109375 C-9.39042969 75.78570313 -10.18320312 75.86046875 -11 75.9375 C-12.17433594 76.05351563 -13.34867187 76.16953125 -14.55859375 76.2890625 C-26.15531469 77.05327561 -34.31685212 74.07989279 -43.66015625 66.890625 C-50.49925632 60.63381892 -56.67954205 51.15289377 -57.16796875 41.6796875 C-57.23976954 27.46313126 -55.27330403 17.51377003 -45.375 6.6875 C-32.66080036 -5.43648534 -15.59971665 -6.95987358 0 0 Z " fill="#069A56" transform="translate(356,467.0625)"/>
<path d="M0 0 C0.65355469 0.41636719 1.30710937 0.83273437 1.98046875 1.26171875 C2.74746094 1.70902344 3.51445312 2.15632812 4.3046875 2.6171875 C12.13631611 7.44561307 16.71339646 13.17522733 20.8046875 21.34375 C21.98256374 23.56605524 21.98256374 23.56605524 24.98046875 25.26171875 C27.69150721 25.46648723 30.30066701 25.55542593 33.01269531 25.55224609 C34.2400666 25.56232193 34.2400666 25.56232193 35.49223328 25.57260132 C38.20191497 25.59162453 40.9113494 25.59550808 43.62109375 25.59765625 C45.50575869 25.60408264 47.39042262 25.61081088 49.27508545 25.61782837 C53.22947501 25.62981298 57.18377715 25.63350812 61.13818359 25.63232422 C66.19672608 25.6321213 71.25470506 25.65939042 76.31311417 25.69386864 C80.20799311 25.71614963 84.10273689 25.72016134 87.99767303 25.71910477 C89.86193529 25.72146019 91.7262013 25.73028039 93.5904007 25.7457695 C96.20421775 25.76544797 98.81682598 25.75958387 101.43066406 25.74755859 C102.19559677 25.75879761 102.96052948 25.77003662 103.74864197 25.78161621 C110.7126072 25.70053178 114.85455845 23.22314474 119.91641235 18.55293274 C123.66357588 15.75091072 126.50211402 15.54882741 131.00537109 15.60229492 C131.7865329 15.59181122 132.5676947 15.58132751 133.37252808 15.57052612 C135.9375632 15.54187628 138.50124044 15.54805538 141.06640625 15.5546875 C142.85146773 15.54156629 144.63651437 15.52626076 146.42153931 15.50886536 C151.10691171 15.46905177 155.79189539 15.45882727 160.47741699 15.45483398 C165.26371017 15.44549567 170.04977561 15.40807774 174.8359375 15.37304688 C184.21743731 15.30850815 193.59876636 15.2752376 202.98046875 15.26171875 C202.98046875 15.92171875 202.98046875 16.58171875 202.98046875 17.26171875 C203.74359375 17.48859375 204.50671875 17.71546875 205.29296875 17.94921875 C208.64063692 19.58412646 209.35705938 20.94462128 210.98046875 24.26171875 C211.58335623 28.39086052 211.44427721 32.5305239 211.41796875 36.69921875 C211.43794922 37.81876953 211.45792969 38.93832031 211.47851562 40.09179688 C211.47477999 46.38635005 211.36778741 50.55753819 206.98046875 55.26171875 C204.79296875 56.01171875 204.79296875 56.01171875 202.98046875 56.26171875 C202.65046875 56.92171875 202.32046875 57.58171875 201.98046875 58.26171875 C191.70491935 58.29327164 181.43014176 58.28701208 171.15466404 58.23325253 C166.38259357 58.20945743 161.6112197 58.19840357 156.83911133 58.21704102 C152.22858264 58.23456909 147.61930174 58.21787964 143.00892448 58.17804146 C141.2552092 58.1687889 139.50138499 58.17160622 137.74771309 58.18702507 C122.29303288 58.30964796 122.29303288 58.30964796 116.51928711 53.76782227 C115.88462021 53.13787857 115.24995331 52.50793488 114.59605408 51.85890198 C111.10364703 48.40627471 106.50241967 49.09401704 101.91650391 49.06884766 C101.09504379 49.06067017 100.27358368 49.05249268 99.42723083 49.04406738 C96.70800503 49.01924817 93.98883123 49.00270814 91.26953125 48.98828125 C90.34075542 48.98295757 89.4119796 48.9776339 88.45505905 48.9721489 C83.54101131 48.94543508 78.62698884 48.92605271 73.71289062 48.91162109 C69.64462873 48.89826838 65.57686682 48.87038894 61.50878906 48.82958984 C56.59695674 48.78032879 51.6855788 48.75550844 46.77350998 48.74839401 C44.90198177 48.74167416 43.03046398 48.72643304 41.15907669 48.7025032 C38.53991927 48.67091666 35.92252019 48.67080441 33.30322266 48.67822266 C32.5310994 48.66181732 31.75897614 48.64541199 30.9634552 48.62850952 C26.9484623 48.67504253 25.20309731 49.07905506 22.0574646 51.66000366 C20.24398436 53.9316302 18.61773722 56.15803019 17.10546875 58.63671875 C11.15244559 67.70942747 4.30034177 73.09551632 -6.375 75.875 C-18.86838992 77.70195067 -29.26937763 76.54465076 -39.70703125 69.13671875 C-48.43560212 61.8886122 -54.30284542 51.93351478 -55.36328125 40.58203125 C-55.64735064 28.81682417 -53.88093302 20.1404784 -46.01953125 11.26171875 C-45.48199219 10.64296875 -44.94445312 10.02421875 -44.390625 9.38671875 C-33.75454974 -2.06371958 -14.44209978 -7.96131226 0 0 Z " fill="#069955" transform="translate(354.01953125,790.73828125)"/>
<path d="M0 0 C4.52893942 1.6282472 8.57978414 3.57978414 12 7 C11.9375 8.8125 11.9375 8.8125 11 11 C10.2575 11.66 9.515 12.32 8.75 13 C3.39549807 17.96536661 0.37379826 27.24992317 -0.19287109 34.45092773 C-0.83228954 52.35498793 -0.83228954 52.35498793 5 69 C5.47695313 69.91523437 5.95390625 70.83046875 6.4453125 71.7734375 C7.58176733 73.88399648 8.75611837 75.95156515 10 78 C4.6830117 82.43082358 1.2853491 84.45330332 -5.640625 84.23828125 C-13.81109714 83.41311767 -19.68265296 79.1149491 -25 73 C-33.18936603 60.37769453 -35.94594949 45.89511831 -33.30859375 31.12890625 C-30.35174786 18.84376832 -25.12624611 8.71797119 -14.640625 1.33984375 C-9.91790229 -1.05644899 -5.15759404 -0.70301778 0 0 Z " fill="#059956" transform="translate(661,646)"/>
<path d="M0 0 C8.91 0 17.82 0 27 0 C26 3 26 3 24 4 C22.44111085 4.09572602 20.87823036 4.13074053 19.31640625 4.1328125 C18.38892578 4.13410156 17.46144531 4.13539063 16.50585938 4.13671875 C15.53455078 4.13285156 14.56324219 4.12898437 13.5625 4.125 C12.11133789 4.13080078 12.11133789 4.13080078 10.63085938 4.13671875 C9.70208984 4.13542969 8.77332031 4.13414062 7.81640625 4.1328125 C6.96506104 4.13168457 6.11371582 4.13055664 5.23657227 4.12939453 C3 4 3 4 0 3 C0 2.01 0 1.02 0 0 Z " fill="#090A0D" transform="translate(589,945)"/>
<path d="M0 0 C0.33 0.66 0.66 1.32 1 2 C1.66 2.33 2.32 2.66 3 3 C1.33333333 8 -0.33333333 13 -2 18 C-2.99 18 -3.98 18 -5 18 C-4.09255778 14.21739874 -3.01058149 10.48847744 -1.9375 6.75 C-1.57527344 5.48671875 -1.21304688 4.2234375 -0.83984375 2.921875 C-0.56269531 1.95765625 -0.28554688 0.9934375 0 0 Z " fill="#111213" transform="translate(982,567)"/>
<path d="M0 0 C-1.375 1.5 -1.375 1.5 -3 3 C-3.66 3 -4.32 3 -5 3 C-5 3.33 -5 3.66 -5 4 C-6.546875 4.433125 -6.546875 4.433125 -8.125 4.875 C-11.45007997 5.82308798 -14.72751453 6.88256594 -18 8 C-18.33 7.01 -18.66 6.02 -19 5 C-16.21142 3.96995707 -13.41969712 2.95069003 -10.625 1.9375 C-9.8309375 1.64294922 -9.036875 1.34839844 -8.21875 1.04492188 C-7.45820312 0.77099609 -6.69765625 0.49707031 -5.9140625 0.21484375 C-5.2123291 -0.04176025 -4.5105957 -0.29836426 -3.78759766 -0.56274414 C-2 -1 -2 -1 0 0 Z " fill="#29292A" transform="translate(852,715)"/>
<path d="M0 0 C0.66 0.66 1.32 1.32 2 2 C1.69797757 6.98337011 -0.91271038 11.54387938 -3 16 C-3.99 16 -4.98 16 -6 16 C-4.27933894 10.55123997 -2.15294651 5.28830549 0 0 Z " fill="#1E1F20" transform="translate(974,590)"/>
<path d="M0 0 C2.74515677 2.38333095 3.89080018 4.68909319 5.1875 8.0625 C5.53167969 8.94035156 5.87585938 9.81820313 6.23046875 10.72265625 C7 13 7 13 7 15 C7.66 15 8.32 15 9 15 C9 16.65 9 18.3 9 20 C5.99951754 16.41788555 4.22301226 12.46987884 2.3125 8.25 C1.99216797 7.55261719 1.67183594 6.85523438 1.34179688 6.13671875 C0.55693739 4.42642792 -0.22211648 2.71347493 -1 1 C-0.67 0.67 -0.34 0.34 0 0 Z " fill="#131315" transform="translate(963,399)"/>
<path d="M0 0 C6.93 0.33 13.86 0.66 21 1 C21 1.33 21 1.66 21 2 C15.72 2 10.44 2 5 2 C5 2.66 5 3.32 5 4 C3.35 3.67 1.7 3.34 0 3 C0 2.01 0 1.02 0 0 Z " fill="#242527" transform="translate(589,945)"/>
<path d="M0 0 C0.75 1.5625 0.75 1.5625 1 4 C-0.02332869 6.54719859 -1.27272296 8.86333587 -3 11 C-3.99 11.33 -4.98 11.66 -6 12 C-4.43358249 7.69235185 -2.31663844 3.93828536 0 0 Z " fill="#1C1C1E" transform="translate(960,619)"/>
<path d="M0 0 C0.66 0.33 1.32 0.66 2 1 C0.92807816 2.3218362 -0.15802695 3.63217927 -1.25 4.9375 C-1.85328125 5.66839844 -2.4565625 6.39929688 -3.078125 7.15234375 C-5.10741134 9.10326334 -6.254407 9.61731779 -9 10 C-8.06409496 8.8944811 -7.12620142 7.79064547 -6.1875 6.6875 C-5.66542969 6.07261719 -5.14335938 5.45773437 -4.60546875 4.82421875 C-3.12827531 3.14575321 -1.59960869 1.56117966 0 0 Z " fill="#E7E7E8" transform="translate(586,296)"/>
<path d="M0 0 C1.485 0.99 1.485 0.99 3 2 C5.38677076 2.29452584 7.78626094 2.4928217 10.1875 2.625 C11.45980469 2.69976563 12.73210937 2.77453125 14.04296875 2.8515625 C15.01878906 2.90054688 15.99460937 2.94953125 17 3 C17 3.33 17 3.66 17 4 C14.56292912 4.2757817 12.12904951 4.52131492 9.6875 4.75 C8.99720703 4.83121094 8.30691406 4.91242187 7.59570312 4.99609375 C5.57421875 5.171875 5.57421875 5.171875 2 5 C0.01953125 3.015625 0.01953125 3.015625 -1 1 C-0.67 0.67 -0.34 0.34 0 0 Z " fill="#0B0C11" transform="translate(375,647)"/>
<path d="M0 0 C0.66 0.33 1.32 0.66 2 1 C2 4.3 2 7.6 2 11 C1.01 11.33 0.02 11.66 -1 12 C-0.67 8.04 -0.34 4.08 0 0 Z " fill="#0D0E0E" transform="translate(990,525)"/>
<path d="M0 0 C0 0.33 0 0.66 0 1 C-1.65 1.33 -3.3 1.66 -5 2 C-5 2.33 -5 2.66 -5 3 C-7.64 3.33 -10.28 3.66 -13 4 C-12.67 3.01 -12.34 2.02 -12 1 C-8.32433144 -0.61729417 -3.92760325 -0.06546005 0 0 Z " fill="#0D0E11" transform="translate(620,282)"/>
<path d="M0 0 C4.95 0.99 4.95 0.99 10 2 C9.34 2.66 8.68 3.32 8 4 C5.27130593 3.96712417 2.7033382 3.43602229 0 3 C0 2.01 0 1.02 0 0 Z " fill="#121315" transform="translate(792,365)"/>
<path d="M0 0 C0.33 0 0.66 0 1 0 C1.125 7.625 1.125 7.625 0 11 C-0.99 11 -1.98 11 -3 11 C-2.11223998 7.30099992 -1.05418136 3.65449539 0 0 Z " fill="#1C1E20" transform="translate(980,574)"/>
<path d="M0 0 C0.33 0 0.66 0 1 0 C2.28571429 8.42857143 2.28571429 8.42857143 1 13 C-0.9078584 9.8250906 -1.1609041 7.89414789 -0.625 4.25 C-0.51414062 3.45078125 -0.40328125 2.6515625 -0.2890625 1.828125 C-0.19367187 1.22484375 -0.09828125 0.6215625 0 0 Z " fill="#161719" transform="translate(907,533)"/>
<path d="M0 0 C0.99 0 1.98 0 3 0 C3.66 2.97 4.32 5.94 5 9 C4.34 9 3.68 9 3 9 C2.01 6.03 1.02 3.06 0 0 Z " fill="#0C0D11" transform="translate(976,430)"/>
<path d="M0 0 C0.33 0 0.66 0 1 0 C2.10228696 4.40914783 2.07654536 8.48382401 2 13 C0.4375 11.5625 0.4375 11.5625 -1 9 C-0.96846324 5.94619073 -0.53266629 3.00346778 0 0 Z " fill="#484749" transform="translate(909,483)"/>
<path d="M0 0 C0.99 0.33 1.98 0.66 3 1 C1.68 2.65 0.36 4.3 -1 6 C-1.99 5.67 -2.98 5.34 -4 5 C-3.34 4.01 -2.68 3.02 -2 2 C-1.34 2 -0.68 2 0 2 C0 1.34 0 0.68 0 0 Z " fill="#E8E8E8" transform="translate(910,675)"/>
<path d="M0 0 C0.66 0.66 1.32 1.32 2 2 C0.02 4.97 0.02 4.97 -2 8 C-2.66 7.67 -3.32 7.34 -4 7 C-2.79618552 4.50638429 -1.54571278 2.31856917 0 0 Z " fill="#0F1014" transform="translate(886,588)"/>
<path d="M0 0 C1.88343932 3.76687864 2.22057835 5.02958963 2 9 C1.01 9.33 0.02 9.66 -1 10 C-0.67 6.7 -0.34 3.4 0 0 Z " fill="#1F2122" transform="translate(988,539)"/>
</svg>
